# xmcd CD database file
#
# Track frame offsets:
#	150
#	22682
#	45257
#	67502
#	90042
#	109357
#	130462
#	152805
#	175402
#	195787
#	217352
#
# Disc length: 3140 seconds
#
# Revision: 0
# Processed by: cddbd v1.4PL0 Copyright (c) Steve Scherf et al.
# Submitted via: CDex 1.50
#
DISCID=820c420b
DTITLE=Joe Pace and the Colorado Mass Choir - The best of Joe Pace and the Colorado Mass Choir
DYEAR=2001
DGENRE=Jazz
TTITLE0=Stir up the gift
TTITLE1=Watch God move
TTITLE2=Still have joy
TTITLE3=He will fight your battle
TTITLE4=Send your latter rain
TTITLE5=So good
TTITLE6=At the cross
TTITLE7=We worship you
TTITLE8=God's got it
TTITLE9=It is well
TTITLE10=Oh holy night
EXTD=YEAR: 2001
EXTT0=
EXTT1=
EXTT2=
EXTT3=
EXTT4=
EXTT5=
EXTT6=
EXTT7=
EXTT8=
EXTT9=
EXTT10=
PLAYORDER=
